<svg id="Layer_1" data-name="Layer 1" xmlns="http://www.w3.org/2000/svg" viewBox="0 0 1225.14 416.17"><defs><style>.cls-1{fill:#dbfafd;}.cls-2{fill:#0a849b;}.cls-3{font-size:21.83px;fill:#fff;}.cls-3,.cls-6{font-family:MyriadPro-Regular, Myriad Pro;}.cls-4,.cls-6{fill:#0071bc;}.cls-5{fill:red;}.cls-6{font-size:71.99px;}</style></defs><text x="-15" y="-246.24"/><rect class="cls-1" y="98.89" width="1225.14" height="317.28"/><rect class="cls-2" x="480.23" y="314.82" width="292.09" height="50.48"/><text class="cls-3" transform="translate(552.71 344.76) scale(1.33 1)">S N E A K E R</text><text x="-15" y="-246.24"/><text x="-15" y="-246.24"/><text x="-15" y="-246.24"/><text x="-15" y="-246.24"/><text x="-15" y="-246.24"/><path class="cls-4" d="M551.35,493q-8.29-8.36-22.09-8.35c-1.24,0-2.24,0-3,.11v25a6,6,0,0,1,3.84-1.43,5.83,5.83,0,0,1,4.59,2,7.11,7.11,0,0,1,1.78,4.92,6.92,6.92,0,0,1-1.81,4.81,5.88,5.88,0,0,1-4.56,2q-6.5,0-6.49-9.84v-49.4H500.44v45.45q0,11,1.7,16.71A28.19,28.19,0,0,0,530,545.83a28.11,28.11,0,0,0,21.07-8.93,30,30,0,0,0,8.6-21.63Q559.66,501.37,551.35,493Z" transform="translate(-15 -246.24)"/><rect class="cls-4" x="549.77" y="237.67" width="23.42" height="59.72"/><path class="cls-4" d="M560.43,462.84a12.48,12.48,0,0,0,4.7,9.86,17.05,17.05,0,0,0,11.45,4,16.68,16.68,0,0,0,11.35-4,12.59,12.59,0,0,0,4.59-9.86Z" transform="translate(-15 -246.24)"/><path class="cls-4" d="M638.41,502.11V480.35H623.78V462.84H594.45v55.74q0,13.63,8.2,19.91,7.79,5.89,23.91,5.89h11.85V522.14h-6.85q-7.78,0-7.78-5.59V502.11Z" transform="translate(-15 -246.24)"/><rect class="cls-4" x="629.67" y="237.23" width="27.61" height="60.6"/><ellipse class="cls-5" cx="643.48" cy="204.8" rx="28.23" ry="27.51"/><text class="cls-6" transform="translate(694.4 193.64) rotate(180) scale(2.06 1)">‘</text><path class="cls-4" d="M744.76,471.62h-38A24.86,24.86,0,0,0,717,489.35l21.49,16.27a4.56,4.56,0,0,1,1.76,3.86q0,3.59-5.54,3.58H706.06v29.78h34.47q16.17,0,26.43-6.22,12.33-7.43,12.33-22a24.28,24.28,0,0,0-5-15.28q-3.24-4.17-12.4-11.11L747.4,477.34q-3.18-2.4-3.18-4.31A2,2,0,0,1,744.76,471.62Z" transform="translate(-15 -246.24)"/><path class="cls-4" d="M713,419.37c18.29,7.95,29.85,25.09,32.59,44.86L761.79,447c-4.88-15-15.27-27.45-30.07-33.88-16-7-34-5.45-49.59,2.6A54.77,54.77,0,0,1,713,419.37Z" transform="translate(-15 -246.24)"/><path class="cls-5" d="M744.48,408.64c13.25,5.76,21.16,19.15,22.46,35l12.62-14.45c-3.06-11.9-10.28-21.56-21-26.22-11.62-5-25-3.19-36.81,3.84A36.44,36.44,0,0,1,744.48,408.64Z" transform="translate(-15 -246.24)"/></svg>