<svg id="Layer_1" data-name="Layer 1" xmlns="http://www.w3.org/2000/svg" viewBox="0 0 1219.88 310.9"><defs><style>.cls-1{fill:#dbfafd;}.cls-2{fill:#0a849b;}.cls-3{font-size:21.39px;fill:#fff;font-family:MyriadPro-Regular, Myriad Pro;}.cls-4{font-size:73.95px;font-family:Bauhaus93, "Bauhaus 93";}</style></defs><rect class="cls-1" width="1219.88" height="310.9"/><path d="M253.75,86.79a2.54,2.54,0,0,1,.39,0c.92.12,1.06,1.39,1.62,1.39h0a3.68,3.68,0,0,1,1.12-1.12,2.71,2.71,0,0,1,.6-.27,1.84,1.84,0,0,1,1.4,0c.13.08.05.08.5.55.26.27.3.29.46.47s.16.21.47.63a5.67,5.67,0,0,1,.57.8c.15.34.14.6.34.67s.11,0,.25,0a4.42,4.42,0,0,1,.69,0,9.41,9.41,0,0,1,1.23.2c.57.14,1.15.26,1.73.39,1.44.33,1.26.26,1.86.41.89.23,1.55.46,2.18.67.42.15,1.06.37,1.88.7.58.24.43.2,1.53.67.8.35,1.06.45,1.54.69s.31.19.89.5c.79.43.86.42,1.31.69s.35.25,1,.65l.85.52c.76.45.77.42,1.13.65s.51.36,1.06.78l1,.76,1,.78c.68.52.65.53,1.15.9s.46.32,1.18.84c.43.31.65.47.94.7s.4.36.79.66.46.36.77.58c.7.52.69.48,1,.75s.39.33,1.06.89c.28.24.56.47.93.75s.69.5,1.32.93.74.5,1,.69.31.27.86.75c.27.23.49.42.76.63.42.34.52.39,1.14.85.38.28.29.23,1.1.84s1.09.82,1.19.89c.36.25.41.27,1,.64.86.56.82.57,1.35.91.68.43,1.25.73,1.75,1l1.22.62,1.22.6,1.25.55,1.25.55c.57.21.59.17,1.31.43s.75.32,1.32.5c.18.06.24.08,1.34.36s1.27.33,1.56.39a9.86,9.86,0,0,0,1.26.22,8.91,8.91,0,0,0,1.27,0,11.74,11.74,0,0,0,1.6-.18,14.16,14.16,0,0,0,2.09-.55,13.25,13.25,0,0,0,4.1-2.22,18.11,18.11,0,0,0,3.81-4.57,45.52,45.52,0,0,0,2.59-4.6c.78-1.52,1.41-2.89,1.75-3.62,1.13-2.48,1.21-2.91,2-4.24a24.38,24.38,0,0,1,1.93-2.93,26.33,26.33,0,0,1,2.61-2.94,27.68,27.68,0,0,1,2.69-2.23,15.39,15.39,0,0,1,2.54-1.7,10.42,10.42,0,0,1,2.18-.87c1.18-.3,2.85-.73,4.25.09a3.51,3.51,0,0,1,1.41,1.6,3.87,3.87,0,0,1,.25,1.81,5.92,5.92,0,0,1-.74,2.87A6.25,6.25,0,0,1,348.09,95a10.71,10.71,0,0,1-2.21,1.36c-.68.34-1.2.55-2.22,1a23.43,23.43,0,0,0-2.4.91c-.78.45-.65.59-2.08,1.66-.94.71-1,.67-1.53,1.13a19.41,19.41,0,0,0-1.45,1.66c-.88,1-1,1.12-1.34,1.6-.23.32-.2.3-.87,1.31-.87,1.3-.93,1.35-1.17,1.76a15.14,15.14,0,0,0-.8,1.82c-.57,1.44-.54,1.57-1,2.66a22.31,22.31,0,0,1-1,2.14,17.48,17.48,0,0,1-1.12,1.84c-.26.38-.34.45-1.32,1.66-1.52,1.87-1.63,2-2.08,2.32a14.2,14.2,0,0,0-1.48.8s-.43.39-1.22,1.14c-.26.24-.44.41-.42.63s.29.41.47.54a5.26,5.26,0,0,1,1.05,1.54,16.46,16.46,0,0,1,1.06,2.43,19.83,19.83,0,0,1,.73,2.05,20.47,20.47,0,0,1,.53,2.15c.15.79.22,1.37.29,1.94a27.2,27.2,0,0,1,.25,3c0,.81,0,.61-.06,2.56,0,1.73,0,1.29,0,2.54a6.89,6.89,0,0,0,.07,2.07,5.39,5.39,0,0,0,.88,1.71,8.58,8.58,0,0,0,1,1.21c1.6,1.66,2.41,2.5,3.16,2.72.18.06.67.19.83.56a.84.84,0,0,1,0,.54,6.06,6.06,0,0,0,.07,1.74,7.21,7.21,0,0,0,.42,1.71,9,9,0,0,0,.55,1.23,11.33,11.33,0,0,0,.86,1.24c.25.33.45.56.73,1a3.54,3.54,0,0,1,.33.55,2,2,0,0,1-.17,1.52c-.26.53-.44.44-.61.9a4.18,4.18,0,0,0-.11,1.3s0,.36-.07,1a11.06,11.06,0,0,1-.17,1.76c-.14.62-.21.93-.47,1.14s-.58.32-1.73.11a7.25,7.25,0,0,1-2.82-1,6.51,6.51,0,0,1-2.54-3,7.75,7.75,0,0,1-.58-2.65c-.09-1,0-1.12,0-2.61a8.11,8.11,0,0,0-.31-3.15c-.43-.84-.9-.78-2.79-2.18a26.42,26.42,0,0,1-3.44-3.07c-.84-.91-.65-.85-1.88-2.22s-1.42-1.45-2.33-2.51a24,24,0,0,1-1.76-2.25,24.51,24.51,0,0,1-2-3.57c-.66-1.34-.57-1.34-1.35-3a22,22,0,0,0-2.63-4.83,9,9,0,0,0-2.38-2.28,9.48,9.48,0,0,0-2-.93,12.58,12.58,0,0,0-2.43-.5c-2.44-.35-3.67-.53-4.25-.59-2.1-.23-2.31-.2-4.06-.38a30.7,30.7,0,0,1-7.26-1.22,21.79,21.79,0,0,1-3.45-1.58,26.91,26.91,0,0,1-3.3-2.19c-1.37-1-1.3-1.15-2.86-2.31a15.1,15.1,0,0,1-2.19-1.63c-.55-.6-1.26-1.06-1.83-1.63-.09-.09-.34-.34-.59-.3a.57.57,0,0,0-.35.3c-.28.44-.82.68-1.85,1.16a8.72,8.72,0,0,1-2.16.61,17.24,17.24,0,0,1-4.91.25,14.93,14.93,0,0,1-4.13-.91c-.66-.26-1.46-.64-1.57-.69-.84-.39-1.09-.56-2.3-1.16l-1.62-.73c-.82-.37-1.21-.55-1.66-.42a1.07,1.07,0,0,0-.66.49c-.15.29.05.44,0,.94a2.09,2.09,0,0,1-.4,1,2.15,2.15,0,0,1-.77.66,3,3,0,0,1-1.83.15,4.71,4.71,0,0,1-1.43-.37,4.64,4.64,0,0,1-1.58-1.16,3.63,3.63,0,0,1-1-2.37,4.34,4.34,0,0,1,.26-2.18,4.4,4.4,0,0,1,1.39-1.57,8.64,8.64,0,0,1,5.15-2,17.64,17.64,0,0,1,2.77.21c.13,0,1.11.12,2.4.15.81,0,1.1,0,1.36-.2a1.5,1.5,0,0,0,.42-1.7,1.94,1.94,0,0,0-1.13-1,5.3,5.3,0,0,0-2.34,0,17,17,0,0,1-1.88.18,4.15,4.15,0,0,1-2.06-.39c-.83-.47-.6-1-1.64-1.73-.31-.23-.25-.13-1.41-.81a5.3,5.3,0,0,1-1.37-1,2.14,2.14,0,0,1-.37-1.88,3.74,3.74,0,0,1,1-1.33c.85-.89,1.12-.92,1.38-1.42.35-.69,0-1,.17-1.63.41-1.46,2.45-1.05,3.64-2.81.64-.93.45-1.63,1.45-2.56a4.79,4.79,0,0,1,1.12-.77" transform="translate(366.87)"/><rect class="cls-2" x="464.52" y="193.07" width="290.83" height="49.46"/><text class="cls-3" transform="translate(536.69 222.41) scale(1.35 1)">S N E A K E R</text><text class="cls-4" transform="translate(545.49 181.88) scale(0.7 1)">PUMA</text></svg>